# xmcd
#
# Track frame offsets: 
#        150
#        15660
#        32784
#        48103
#        66258
#        81271
#        100821
#        113211
#        130759
#
# Disc length: 1989 seconds
#
# Revision: 0
# Processed by: cddbd v1.5.1PL0 Copyright (c) Steve Scherf et al.
# Submitted via: ExactAudioCopy v0.95a4
#
DISCID=6e07c309
DTITLE=Mike Fellows - Limited Storyline Guest
DYEAR=2004
DGENRE=Country
TTITLE0=Way I Love
TTITLE1=All Wang Heavily
TTITLE2=Zig Zag Zig
TTITLE3=Sunshores
TTITLE4=Chinese Houses
TTITLE5=Our Crank
TTITLE6=AM
TTITLE7=Commander of Space
TTITLE8=Nothing Sign
EXTD=
EXTT0=
EXTT1=
EXTT2=
EXTT3=
EXTT4=
EXTT5=
EXTT6=
EXTT7=
EXTT8=
PLAYORDER=
